HIERARCHY
ROOT Hips
{
	OFFSET 0.000000 0.000000 0.000000
	CHANNELS 6 Xposition Yposition Zposition Xrotation Yrotation Zrotation
	JOINT LeftUpLeg_virtual
	{
		OFFSET 0.000000 0.000000 0.000000
		CHANNELS 3 Xrotation Yrotation Zrotation
		JOINT LeftUpLeg
		{
			OFFSET 13.026900 -6.336304 -1.092800
			CHANNELS 3 Xrotation Yrotation Zrotation
			JOINT LeftLeg
			{
				OFFSET 0.524474 -46.096886 9.782700
				CHANNELS 3 Xrotation Yrotation Zrotation
				JOINT LeftFoot
				{
					OFFSET -0.524474 -53.427422 -12.948200
					CHANNELS 3 Xrotation Yrotation Zrotation
					JOINT LeftToeBase
					{
						OFFSET 0.192200 -14.009700 16.364100
						CHANNELS 3 Xrotation Yrotation Zrotation
						JOINT LeftToe_End
						{
							OFFSET -1.784700 -0.561700 9.474800
							CHANNELS 3 Xrotation Yrotation Zrotation
							End Site
							{
								OFFSET 0 0 0
							}
						}
					}
				}
			}
		}
	}
	JOINT RightUpLeg_virtual
	{
		OFFSET 0.000000 0.000000 0.000000
		CHANNELS 3 Xrotation Yrotation Zrotation
		JOINT RightUpLeg
		{
			OFFSET -12.883000 -6.336304 -1.092800
			CHANNELS 3 Xrotation Yrotation Zrotation
			JOINT RightLeg
			{
				OFFSET -0.524587 -46.096825 9.782800
				CHANNELS 3 Xrotation Yrotation Zrotation
				JOINT RightFoot
				{
					OFFSET 0.524587 -53.427383 -12.948300
					CHANNELS 3 Xrotation Yrotation Zrotation
					JOINT RightToeBase
					{
						OFFSET -0.192200 -14.009700 16.364100
						CHANNELS 3 Xrotation Yrotation Zrotation
						JOINT RightToe_End
						{
							OFFSET 1.784700 -0.561700 9.474800
							CHANNELS 3 Xrotation Yrotation Zrotation
							End Site
							{
								OFFSET 0 0 0
							}
						}
					}
				}
			}
		}
	}
	JOINT Spine_virtual
	{
		OFFSET 0.000000 0.000000 0.000000
		CHANNELS 3 Xrotation Yrotation Zrotation
		JOINT Spine
		{
			OFFSET 0.072000 7.257294 -0.789700
			CHANNELS 3 Xrotation Yrotation Zrotation
			JOINT Spine1
			{
				OFFSET 0.000000 12.508769 -0.658067
				CHANNELS 3 Xrotation Yrotation Zrotation
				JOINT Spine1_split
				{
					OFFSET 0.000000 12.508769 -0.658067
					CHANNELS 3 Xrotation Yrotation Zrotation
					JOINT Spine2
					{
						OFFSET 0.000000 12.508769 -0.658067
						CHANNELS 3 Xrotation Yrotation Zrotation
						JOINT Neck_virtual
						{
							OFFSET 0.000000 0.000000 0.000000
							CHANNELS 3 Xrotation Yrotation Zrotation
							JOINT Neck
							{
								OFFSET 0.000000 14.033295 7.520400
								CHANNELS 3 Xrotation Yrotation Zrotation
								JOINT Head
								{
									OFFSET 0.000000 8.198502 5.703100
									CHANNELS 3 Xrotation Yrotation Zrotation
									JOINT HeadTop_End
									{
										OFFSET 0.000000 17.760803 13.332701
										CHANNELS 3 Xrotation Yrotation Zrotation
										End Site
										{
											OFFSET 0 0 0
										}
									}
								}
							}
						}
						JOINT LeftShoulder_virtual
						{
							OFFSET 0.000000 0.000000 0.000000
							CHANNELS 3 Xrotation Yrotation Zrotation
							JOINT LeftShoulder
							{
								OFFSET 6.292450 5.785301 -0.669000
								CHANNELS 3 Xrotation Yrotation Zrotation
								JOINT LeftShoulder_split
								{
									OFFSET 6.292450 5.785301 -0.669000
									CHANNELS 3 Xrotation Yrotation Zrotation
									JOINT LeftArm
									{
										OFFSET 13.907140 -6.093903 1.965100
										CHANNELS 3 Xrotation Yrotation Zrotation
										JOINT LeftForeArm
										{
											OFFSET 34.140198 0.000000 0.000000
											CHANNELS 3 Xrotation Yrotation Zrotation
											JOINT LeftHand
											{
												OFFSET 40.960209 0.000000 0.000000
												CHANNELS 3 Xrotation Yrotation Zrotation
												End Site
												{
													OFFSET 0 0 0
												}
											}
										}
									}
								}
							}
						}
						JOINT RightShoulder_virtual
						{
							OFFSET 0.000000 0.000000 0.000000
							CHANNELS 3 Xrotation Yrotation Zrotation
							JOINT RightShoulder
							{
								OFFSET -6.292450 5.785301 -0.669000
								CHANNELS 3 Xrotation Yrotation Zrotation
								JOINT RightShoulder_split
								{
									OFFSET -6.292450 5.785301 -0.669000
									CHANNELS 3 Xrotation Yrotation Zrotation
									JOINT RightArm
									{
										OFFSET -13.907140 -6.093903 1.965100
										CHANNELS 3 Xrotation Yrotation Zrotation
										JOINT RightForeArm
										{
											OFFSET -34.140198 0.000000 0.000000
											CHANNELS 3 Xrotation Yrotation Zrotation
											JOINT RightHand
											{
												OFFSET -40.960209 0.000000 0.000000
												CHANNELS 3 Xrotation Yrotation Zrotation
												End Site
												{
													OFFSET 0 0 0
												}
											}
										}
									}
								}
							}
						}
					}
				}
			}
		}
	}
}
MOTION
Frames: 6
Frame Time: 0.03333333
-2.868865 112.938217 -1.808022 0.000000 0.000000 0.000000 4.022768 -15.460092 10.046489 -34.121409 -5.675652 -11.047618 11.928462 -2.392724 -2.373206 19.427355 -23.571237 7.563705 -2.672411 -0.328261 0.961476 0.000000 0.000000 0.000000 3.480618 -12.806739 10.120139 5.552783 -15.586524 -7.735643 27.789926 4.780017 -4.651526 -7.705043 0.200179 7.329179 -23.265356 0.165557 -0.162514 0.000000 0.000000 0.000000 2.539236 -14.588022 8.668942 1.973470 5.099554 0.222691 5.874515 9.375159 2.196195 0.857230 -2.112939 0.788721 0.000000 0.000000 0.000000 4.768964 9.225860 2.238735 -2.213337 0.013849 -2.065194 -6.902571 -1.857834 -11.915144 0.000000 0.000000 0.000000 4.626762 9.511405 2.007123 0.540296 0.499860 -13.365806 0.918979 1.981028 -1.808049 -18.519756 -24.611502 -69.524919 0.492739 -65.727245 -1.470107 0.000000 0.000000 0.000000 4.927225 9.523249 2.285829 0.967589 11.504277 18.792043 -1.544164 2.782462 -1.730677 -44.316876 57.075786 70.963500 -2.441969 39.532428 1.050654 0.000000 0.000000 0.000000 
-2.625722 112.952370 -1.628075 0.000000 0.000000 0.000000 3.929808 -15.402288 9.845859 -34.117638 -6.209647 -10.977793 12.146281 -2.694904 -2.489528 19.413879 -23.930994 7.359622 -2.697882 -0.301888 1.012654 0.000000 0.000000 0.000000 3.536810 -12.684784 9.968651 5.744900 -15.700978 -7.771912 27.241537 4.703270 -4.515860 -8.126802 0.361274 7.260088 -22.741619 0.216361 -0.315499 0.000000 0.000000 0.000000 2.630198 -14.728024 8.437512 2.047727 5.124024 0.332870 5.858375 9.353676 2.190980 0.906832 -2.044941 0.767955 0.000000 0.000000 0.000000 4.801158 9.192333 2.240950 -2.201096 0.036732 -2.075859 -6.996442 -1.981392 -11.903452 0.000000 0.000000 0.000000 4.598534 9.477011 1.988341 0.526867 0.421662 -13.371059 1.038121 2.095357 -1.815186 -18.897359 -24.799954 -69.645588 0.616889 -65.852613 -1.378869 0.000000 0.000000 0.000000 4.922910 9.503035 2.285280 0.973712 11.397453 18.764082 -1.689022 2.669658 -1.697929 -44.594056 57.101987 71.131093 -2.415921 39.757008 1.037815 0.000000 0.000000 0.000000 
-2.395861 112.800766 -1.405106 0.000000 0.000000 0.000000 3.741711 -15.600424 9.406666 -34.342628 -6.581472 -10.776391 12.857220 -3.075276 -2.614570 19.196016 -24.441335 6.980204 -2.680368 -0.195477 1.013569 0.000000 0.000000 0.000000 3.674771 -12.978704 9.536038 6.230778 -15.667399 -7.524023 26.088719 4.711603 -4.341460 -8.893361 0.661689 6.963371 -21.938185 0.254814 -0.578518 0.000000 0.000000 0.000000 2.675572 -15.035130 8.040746 2.168782 5.216200 0.613398 5.833861 9.325812 2.179005 0.924484 -1.948709 0.723103 0.000000 0.000000 0.000000 4.825851 9.143163 2.229375 -2.456279 0.062107 -2.084959 -7.331968 -2.171406 -11.816189 0.000000 0.000000 0.000000 4.578398 9.429980 1.969072 0.507317 0.308538 -13.394573 1.050520 2.241042 -1.836753 -19.427324 -25.261173 -69.806398 0.753410 -65.907883 -1.291274 0.000000 0.000000 0.000000 4.905868 9.471053 2.278577 0.958019 11.299310 18.718941 -1.809833 2.544795 -1.608915 -44.857090 57.000025 71.221804 -2.415015 40.390392 1.055928 0.000000 0.000000 0.000000 
-2.260366 112.513962 -1.212990 0.000000 0.000000 0.000000 3.509243 -16.065281 8.819621 -34.632792 -6.832418 -10.495282 13.859670 -3.418714 -2.697080 18.741359 -24.958227 6.535610 -2.636967 -0.014207 0.936258 0.000000 0.000000 0.000000 3.876032 -13.530062 8.943557 6.959337 -15.577449 -7.020940 24.780123 4.814869 -4.149643 -9.592175 1.059881 6.464113 -21.339534 0.242727 -0.803687 0.000000 0.000000 0.000000 2.683956 -15.393278 7.550192 2.297532 5.376485 1.006657 5.811635 9.290831 2.155323 0.972686 -1.884605 0.652602 0.000000 0.000000 0.000000 4.836750 9.094015 2.201119 -2.927579 0.061400 -2.090232 -7.859362 -2.380571 -11.666089 0.000000 0.000000 0.000000 4.557569 9.381658 1.948068 0.487585 0.203605 -13.436521 0.968272 2.397234 -1.834823 -19.938845 -25.906175 -69.941765 0.844847 -65.909782 -1.250838 0.000000 0.000000 0.000000 4.874671 9.430047 2.261529 0.922340 11.198445 18.655499 -1.868681 2.503754 -1.531437 -45.002344 56.768383 71.175318 -2.433169 41.310572 1.103809 0.000000 0.000000 0.000000 
-2.186395 112.163910 -0.982140 0.000000 0.000000 0.000000 3.327911 -16.759174 8.185095 -34.862621 -7.048707 -10.178727 14.963295 -3.663290 -2.736981 18.051997 -25.384593 6.114957 -2.585243 0.228324 0.769050 0.000000 0.000000 0.000000 4.045485 -14.255895 8.291720 7.818705 -15.541701 -6.366043 23.535630 4.997485 -3.955208 -10.059015 1.548111 5.747960 -21.044177 0.153679 -0.853844 0.000000 0.000000 0.000000 2.677294 -15.720141 7.029432 2.421861 5.598438 1.461069 5.780565 9.256850 2.117172 0.987038 -1.867607 0.611954 0.000000 0.000000 0.000000 4.817272 9.053796 2.159763 -3.528819 0.015151 -2.085072 -8.504440 -2.559758 -11.480389 0.000000 0.000000 0.000000 4.528291 9.342021 1.920389 0.469626 0.156002 -13.500805 0.835753 2.517778 -1.851389 -20.311700 -26.672809 -70.012943 0.845813 -65.919590 -1.282796 0.000000 0.000000 0.000000 4.829425 9.389580 2.226830 0.871331 11.086978 18.551907 -1.839299 2.543952 -1.508402 -44.987529 56.381118 71.001408 -2.469047 42.442147 1.170216 0.000000 0.000000 0.000000 
-2.163829 111.828072 -0.759731 0.000000 0.000000 0.000000 3.236253 -17.509480 7.592750 -35.100581 -7.331248 -9.819375 16.064969 -3.850613 -2.730739 17.234784 -25.741323 5.680859 -2.509994 0.522938 0.530958 0.000000 0.000000 0.000000 4.188873 -14.978540 7.659165 8.740671 -15.574580 -5.655703 22.461876 5.232529 -3.798833 -10.355606 2.128137 4.814397 -20.969939 0.003008 -0.701342 0.000000 0.000000 0.000000 2.731019 -15.950467 6.520858 2.517432 5.850885 1.948187 5.740723 9.235613 2.063487 0.914502 -1.861471 0.594921 0.000000 0.000000 0.000000 4.761926 9.019887 2.112116 -4.176065 -0.064499 -2.061492 -9.194887 -2.673304 -11.279897 0.000000 0.000000 0.000000 4.481015 9.312752 1.878779 0.450504 0.192906 -13.586799 0.685698 2.559385 -1.843516 -20.527498 -27.482405 -70.032143 0.756063 -65.979122 -1.379039 0.000000 0.000000 0.000000 4.771642 9.351573 2.173997 0.807372 10.951933 18.392576 -1.771017 2.608884 -1.502853 -44.841285 55.859855 70.739012 -2.523847 43.713231 1.242744 0.000000 0.000000 0.000000 
